
<svg xmlns="http://www.w3.org/2000/svg" width="30x" height="30x" viewBox="0 0 450 800" fill="#000000">
  <!-- Paste the content inside the <g> element here -->
  <g transform="translate(95.000000,512.000000) scale(0.050000,-0.050000)" fill="#000000" stroke="none">
    <path d="M3498 5100 c-20 -11 -47 -36 -60 -57 -23 -38 -23 -40 -26 -405 l-3 -366 -117 -7 c-329 -18 -602 -88 -872 -226 -637 -324 -1058 -941 -1130 -1658 -15 -156 -13 -534 4 -574 39 -95 168 -127 245 -61 16 13 48 59 72 102 253 464 678 779 1204 892 81 18 146 23 347 27 l247 5 3 -368 c3 -367 3 -369 27 -407 45 -72 148 -98 216 -53 46 30 1437 1481 1451 1513 18 41 18 85 0 126 -14 33 -1405 1483 -1452 1513 -39 26 -112 28 -156 4z"/>
    <path d="M540 4259 c-232 -34 -440 -217 -512 -449 l-23 -75 0 -1605 0 -1605 22 -70 c31 -98 87 -189 163 -265 76 -75 148 -120 252 -158 l73 -27 2012 -3 c2250 -3 2088 -8 2242 70 146 73 268 216 324 378 l22 65 3 925 c2 711 0 935 -9 970 -26 92 -132 160 -229 147 -62 -8 -125 -51 -157 -105 l-28 -47 -5 -921 -5 -921 -27 -39 c-15 -21 -44 -50 -65 -64 l-37 -25 -1996 0 -1997 0 -39 27 c-21 15 -50 44 -64 65 l-25 37 -3 1558 c-2 1519 -2 1559 17 1596 25 48 66 87 113 106 31 14 95 16 398 16 303 0 367 2 398 16 79 33 132 110 132 194 0 88 -38 152 -115 193 -39 21 -52 22 -405 23 -201 1 -394 -2 -430 -7z"/>
  </g>
</svg>
